<?xml version="1.0" encoding="UTF-8" standalone="no"?>
<!-- Created with Inkscape (http://www.inkscape.org/) -->

<svg
   width="512"
   height="512"
   viewBox="0 0 135.46666 135.46667"
   version="1.1"
   id="svg5"
   xml:space="preserve"
   inkscape:version="1.2.1 (9c6d41e, 2022-07-14)"
   sodipodi:docname="tonium.svg"
   xmlns:inkscape="http://www.inkscape.org/namespaces/inkscape"
   xmlns:sodipodi="http://sodipodi.sourceforge.net/DTD/sodipodi-0.dtd"
   xmlns="http://www.w3.org/2000/svg"
   xmlns:svg="http://www.w3.org/2000/svg"><sodipodi:namedview
     id="namedview7"
     pagecolor="#ffffff"
     bordercolor="#666666"
     borderopacity="1.0"
     inkscape:showpageshadow="2"
     inkscape:pageopacity="0.0"
     inkscape:pagecheckerboard="0"
     inkscape:deskcolor="#d1d1d1"
     inkscape:document-units="mm"
     showgrid="false"
     inkscape:zoom="0.90783803"
     inkscape:cx="306.22202"
     inkscape:cy="206.53464"
     inkscape:window-width="1440"
     inkscape:window-height="869"
     inkscape:window-x="0"
     inkscape:window-y="0"
     inkscape:window-maximized="1"
     inkscape:current-layer="layer1" /><defs
     id="defs2" /><g
     inkscape:label="Layer 1"
     inkscape:groupmode="layer"
     id="layer1"><rect
       style="fill:#ffffff;fill-opacity:1;stroke-width:12.5008;stroke-dashoffset:26.3466"
       id="rect1636"
       width="135.46666"
       height="135.46666"
       x="-1.7763568e-15"
       y="-1.7763568e-15"
       ry="36.105305" /><g
       id="g2277"
       transform="translate(0,2.1166667)"><path
         id="path302"
         style="fill:#339cec;fill-opacity:1;stroke-width:0.0705243"
         d="m 67.974146,31.401184 v 2.926436 2.926437 l 13.128397,0.01809 13.127881,0.01757 6.089546,9.732222 c 3.34917,5.352784 6.08956,9.748469 6.08956,9.767879 2.8e-4,0.03625 -4.90144,5.596589 -21.474146,24.359237 -5.23643,5.928365 -9.679355,10.963404 -9.873299,11.188981 -0.193943,0.225588 -0.3767,0.412345 -0.40566,0.414445 -0.02906,0.0025 -0.06098,-5.956294 -0.07028,-13.242086 l -0.01809,-13.247253 -3.296956,3.663342 -3.296956,3.663859 v 17.341061 c 0,9.537606 0.01285,17.341056 0.02842,17.341056 0.01559,0 2.959185,-3.25853 6.541202,-7.2409 C 78.125792,97.04922 88.22437,85.824902 96.985295,76.088379 107.9543,63.897897 112.9543,58.292986 113.0422,58.087927 c 0.0702,-0.163773 0.14866,-0.439891 0.17466,-0.613399 0.11665,-0.777891 0.47622,-0.159715 -7.65948,-13.186275 -5.566464,-8.912779 -7.624798,-12.153155 -7.8574,-12.369271 -0.606585,-0.563583 0.737874,-0.517798 -15.351001,-0.517798 z" /><path
         id="path1690"
         style="fill:#339cec;fill-opacity:1;stroke-width:0.0705243"
         d="m 65.294206,31.400667 -14.404289,0.0021 c -14.319331,0.0015 -14.406545,0.002 -14.720032,0.144178 -0.173445,0.07868 -0.417804,0.221069 -0.542602,0.316259 -0.15354,0.117112 -2.65999,4.066475 -7.753015,12.214759 -4.139619,6.622937 -7.588819,12.181716 -7.664649,12.352734 -0.1834,0.413667 -0.146382,1.315343 0.07131,1.734261 0.08063,0.155148 7.345853,8.282142 16.144751,18.05988 8.798899,9.777746 18.885693,20.988455 22.415169,24.912692 3.529474,3.92424 6.424886,7.13496 6.435266,7.13496 0.0098,0 0.01809,-1.78725 0.01809,-3.97185 v -3.97237 L 61.689258,96.242704 C 59.706557,93.995745 57.968165,92.030688 57.825928,91.875529 57.583309,91.610866 52.98996,86.408931 34.495569,65.451819 l -7.634676,-8.651668 6.107637,-9.773047 6.108155,-9.77253 h 9.793717 9.794234 l 0.01757,13.412101 0.01809,13.412101 3.29644,-3.732589 3.296439,-3.733105 5.17e-4,-12.605949 z" /></g></g></svg>
